<svg xmlns="http://www.w3.org/2000/svg" width="168" zoomAndPan="magnify" viewBox="0 0 126 36.000001"
    height="48" preserveAspectRatio="xMidYMid meet" version="1.0"><defs><g/></defs><g fill="#000000" fill-opacity="1"><g transform="translate(5.205404, 21.906888)"><g><path d="M 5.230469 -6.019531 L 5.230469 -7.902344 L 4.984375 -7.902344 L 4.984375 -6.996094 C 4.699219 -7.527344 4.144531 -7.832031 3.414062 -7.832031 C 2.191406 -7.832031 1.179688 -6.808594 1.179688 -5.535156 C 1.179688 -2.699219 5.300781 -3.734375 5.300781 -1.707031 C 5.300781 -0.8125 4.511719 -0.128906 3.425781 -0.128906 C 2.214844 -0.128906 1.273438 -1.011719 1.179688 -2.25 L 0.929688 -2.25 L 0.929688 0.117188 L 1.179688 0.117188 L 1.179688 -1.179688 C 1.625 -0.351562 2.449219 0.117188 3.414062 0.117188 C 4.863281 0.117188 6.007812 -0.988281 6.007812 -2.367188 C 6.007812 -5.253906 1.980469 -4.15625 1.980469 -6.183594 C 1.980469 -6.960938 2.613281 -7.574219 3.464844 -7.574219 C 4.335938 -7.574219 4.921875 -6.984375 4.996094 -6.019531 Z M 5.230469 -6.019531 "/></g></g></g><g fill="#000000" fill-opacity="1"><g transform="translate(11.801596, 21.906888)"><g><path d="M 8.941406 0 L 8.941406 -0.246094 L 8.152344 -0.246094 L 8.152344 -4.289062 C 8.152344 -5.3125 7.867188 -6.125 7.304688 -6.761719 C 6.738281 -7.398438 5.855469 -7.832031 4.933594 -7.832031 C 4.097656 -7.832031 3.34375 -7.363281 2.980469 -6.738281 L 2.980469 -10.835938 L 0.765625 -10.835938 L 0.765625 -10.589844 L 1.578125 -10.589844 L 1.578125 -0.246094 L 0.765625 -0.246094 L 0.765625 0 L 3.769531 0 L 3.769531 -0.246094 L 2.980469 -0.246094 L 2.980469 -6.207031 C 3.332031 -7.078125 4.109375 -7.585938 4.875 -7.585938 C 5.546875 -7.585938 6.019531 -7.21875 6.265625 -6.890625 C 6.738281 -6.253906 6.75 -5.570312 6.75 -4.6875 L 6.75 0 Z M 8.941406 0 "/></g></g></g><g fill="#000000" fill-opacity="1"><g transform="translate(21.330738, 21.906888)"><g><path d="M 5.996094 -1.507812 C 5.640625 -0.636719 4.863281 -0.128906 4.097656 -0.128906 C 3.425781 -0.128906 2.957031 -0.496094 2.710938 -0.824219 C 2.238281 -1.460938 2.226562 -2.144531 2.226562 -3.027344 L 2.226562 -4.851562 C 2.226562 -5.984375 2.414062 -6.5625 2.78125 -6.972656 C 3.121094 -7.363281 3.558594 -7.585938 4.109375 -7.585938 C 4.710938 -7.585938 5.207031 -7.316406 5.511719 -6.890625 C 5.878906 -6.394531 5.996094 -5.867188 5.996094 -4.757812 Z M 7.398438 -4.253906 C 7.398438 -5.382812 7.148438 -6.113281 6.503906 -6.820312 C 5.902344 -7.46875 4.984375 -7.832031 4.109375 -7.832031 C 2.6875 -7.832031 1.402344 -6.925781 1 -5.605469 C 0.859375 -5.160156 0.824219 -4.792969 0.824219 -4.289062 L 0.824219 -3.425781 C 0.824219 -2.402344 1.105469 -1.589844 1.671875 -0.953125 C 2.238281 -0.316406 3.121094 0.117188 4.039062 0.117188 C 4.875 0.117188 5.640625 -0.351562 6.007812 -0.976562 L 6.007812 0 L 8.210938 0 L 8.210938 -0.246094 L 7.398438 -0.246094 Z M 7.398438 -4.253906 "/></g></g></g><g fill="#000000" fill-opacity="1"><g transform="translate(29.976459, 21.906888)"><g><path d="M 5.84375 0 L 8.824219 0 L 8.824219 -0.246094 L 8.035156 -0.246094 L 8.035156 -4.289062 C 8.035156 -5.160156 7.820312 -5.925781 7.46875 -6.371094 C 8.019531 -7.078125 8.90625 -7.585938 9.835938 -7.585938 C 10.53125 -7.585938 11.035156 -7.304688 11.332031 -6.878906 C 11.671875 -6.394531 11.800781 -5.808594 11.800781 -4.851562 L 11.800781 -0.246094 L 11.011719 -0.246094 L 11.011719 0 L 14.015625 0 L 14.015625 -0.246094 L 13.203125 -0.246094 L 13.203125 -4.335938 C 13.203125 -5.640625 12.746094 -6.550781 11.824219 -7.21875 C 11.273438 -7.621094 10.589844 -7.832031 9.929688 -7.832031 C 8.964844 -7.832031 8.105469 -7.457031 7.316406 -6.597656 C 7.101562 -6.878906 6.808594 -7.125 6.503906 -7.328125 C 6.007812 -7.644531 5.359375 -7.832031 4.757812 -7.832031 C 3.511719 -7.832031 2.34375 -7.136719 1.777344 -5.984375 C 1.484375 -5.382812 1.460938 -4.675781 1.460938 -3.804688 L 1.460938 -0.246094 L 0.648438 -0.246094 L 0.648438 0 L 3.652344 0 L 3.652344 -0.246094 L 2.863281 -0.246094 L 2.863281 -5.183594 C 2.863281 -6.691406 3.652344 -7.585938 4.746094 -7.585938 C 5.84375 -7.585938 6.632812 -6.691406 6.632812 -5.183594 L 6.632812 -0.246094 L 5.84375 -0.246094 Z M 5.84375 0 "/></g></g></g><g fill="#000000" fill-opacity="1"><g transform="translate(44.641206, 21.906888)"><g><path d="M 6.417969 -2.957031 C 6.417969 -1.847656 6.300781 -1.320312 5.9375 -0.824219 C 5.628906 -0.402344 5.136719 -0.128906 4.535156 -0.128906 C 3.980469 -0.128906 3.546875 -0.351562 3.203125 -0.742188 C 2.839844 -1.15625 2.648438 -1.730469 2.648438 -2.863281 L 2.648438 -6.207031 C 3.003906 -7.078125 3.78125 -7.585938 4.546875 -7.585938 C 5.21875 -7.585938 5.6875 -7.21875 5.9375 -6.890625 C 6.40625 -6.253906 6.417969 -5.570312 6.417969 -4.6875 Z M 1.25 -3.425781 C 1.25 -2.921875 1.285156 -2.554688 1.425781 -2.109375 C 1.824219 -0.789062 3.109375 0.117188 4.535156 0.117188 C 5.40625 0.117188 6.324219 -0.246094 6.925781 -0.894531 C 7.574219 -1.601562 7.820312 -2.332031 7.820312 -3.464844 L 7.820312 -4.289062 C 7.820312 -5.3125 7.539062 -6.125 6.972656 -6.761719 C 6.40625 -7.398438 5.523438 -7.832031 4.605469 -7.832031 C 3.769531 -7.832031 3.015625 -7.363281 2.648438 -6.738281 L 2.648438 -10.835938 L 0.4375 -10.835938 L 0.4375 -10.589844 L 1.25 -10.589844 Z M 1.25 -3.425781 "/></g></g></g><g fill="#000000" fill-opacity="1"><g transform="translate(53.286927, 21.906888)"><g><path d="M 5.996094 -1.507812 C 5.640625 -0.636719 4.863281 -0.128906 4.097656 -0.128906 C 3.425781 -0.128906 2.957031 -0.496094 2.710938 -0.824219 C 2.238281 -1.460938 2.226562 -2.144531 2.226562 -3.027344 L 2.226562 -4.851562 C 2.226562 -5.984375 2.414062 -6.5625 2.78125 -6.972656 C 3.121094 -7.363281 3.558594 -7.585938 4.109375 -7.585938 C 4.710938 -7.585938 5.207031 -7.316406 5.511719 -6.890625 C 5.878906 -6.394531 5.996094 -5.867188 5.996094 -4.757812 Z M 7.398438 -4.253906 C 7.398438 -5.382812 7.148438 -6.113281 6.503906 -6.820312 C 5.902344 -7.46875 4.984375 -7.832031 4.109375 -7.832031 C 2.6875 -7.832031 1.402344 -6.925781 1 -5.605469 C 0.859375 -5.160156 0.824219 -4.792969 0.824219 -4.289062 L 0.824219 -3.425781 C 0.824219 -2.402344 1.105469 -1.589844 1.671875 -0.953125 C 2.238281 -0.316406 3.121094 0.117188 4.039062 0.117188 C 4.875 0.117188 5.640625 -0.351562 6.007812 -0.976562 L 6.007812 0 L 8.210938 0 L 8.210938 -0.246094 L 7.398438 -0.246094 Z M 7.398438 -4.253906 "/></g></g></g><g fill="#000000" fill-opacity="1"><g transform="translate(61.932647, 21.906888)"><g/></g></g><g fill="#000000" fill-opacity="1"><g transform="translate(67.774989, 21.906888)"><g><path d="M 5.925781 -1.660156 C 5.785156 -0.835938 5.125 -0.128906 4.15625 -0.128906 C 3.355469 -0.128906 2.792969 -0.554688 2.507812 -1.140625 C 2.273438 -1.636719 2.226562 -2.109375 2.226562 -3.25 L 2.226562 -4.945312 C 2.226562 -5.832031 2.367188 -6.441406 2.660156 -6.832031 C 3.039062 -7.339844 3.464844 -7.585938 4.15625 -7.585938 C 4.984375 -7.585938 5.808594 -6.925781 5.808594 -6.03125 L 5.808594 -5.925781 L 6.054688 -5.925781 L 6.054688 -7.808594 L 5.808594 -7.808594 L 5.808594 -6.996094 C 5.441406 -7.503906 4.839844 -7.832031 4.015625 -7.832031 C 3.0625 -7.832031 2.203125 -7.386719 1.648438 -6.75 C 1.105469 -6.136719 0.824219 -5.40625 0.824219 -4.265625 L 0.824219 -3.4375 C 0.824219 -2.34375 1.070312 -1.625 1.636719 -0.976562 C 2.261719 -0.257812 3.226562 0.128906 4.144531 0.128906 C 5.195312 0.128906 6.019531 -0.578125 6.195312 -1.660156 Z M 5.925781 -1.660156 "/></g></g></g><g fill="#000000" fill-opacity="1"><g transform="translate(74.406511, 21.906888)"><g><path d="M 7.339844 -4.253906 C 7.339844 -5.382812 7.089844 -6.113281 6.441406 -6.820312 C 5.84375 -7.46875 4.921875 -7.832031 4.050781 -7.832031 C 2.625 -7.832031 1.34375 -6.925781 0.941406 -5.605469 C 0.800781 -5.160156 0.765625 -4.792969 0.765625 -4.289062 L 0.765625 -3.464844 C 0.765625 -2.332031 1.011719 -1.601562 1.660156 -0.894531 C 2.261719 -0.246094 3.179688 0.117188 4.050781 0.117188 C 5.476562 0.117188 6.761719 -0.789062 7.160156 -2.109375 C 7.304688 -2.554688 7.339844 -2.921875 7.339844 -3.425781 Z M 5.9375 -2.863281 C 5.9375 -1.730469 5.75 -1.15625 5.382812 -0.742188 C 5.042969 -0.351562 4.605469 -0.128906 4.050781 -0.128906 C 3.453125 -0.128906 2.957031 -0.402344 2.648438 -0.824219 C 2.285156 -1.320312 2.167969 -1.847656 2.167969 -2.957031 L 2.167969 -4.851562 C 2.167969 -5.984375 2.355469 -6.5625 2.722656 -6.972656 C 3.0625 -7.363281 3.5 -7.585938 4.050781 -7.585938 C 4.652344 -7.585938 5.148438 -7.316406 5.453125 -6.890625 C 5.820312 -6.394531 5.9375 -5.867188 5.9375 -4.757812 Z M 5.9375 -2.863281 "/></g></g></g><g fill="#000000" fill-opacity="1"><g transform="translate(82.510404, 21.906888)"><g><path d="M 8.824219 0 L 8.824219 -0.246094 L 8.035156 -0.246094 L 8.035156 -4.265625 C 8.035156 -4.839844 7.9375 -5.40625 7.773438 -5.832031 C 7.292969 -7.019531 6.089844 -7.832031 4.746094 -7.832031 C 3.402344 -7.832031 2.203125 -7.019531 1.71875 -5.832031 C 1.554688 -5.40625 1.460938 -4.839844 1.460938 -4.265625 L 1.460938 -0.246094 L 0.648438 -0.246094 L 0.648438 0 L 3.652344 0 L 3.652344 -0.246094 L 2.863281 -0.246094 L 2.863281 -5.183594 C 2.863281 -6.691406 3.652344 -7.585938 4.746094 -7.585938 C 5.84375 -7.585938 6.632812 -6.691406 6.632812 -5.183594 L 6.632812 -0.246094 L 5.84375 -0.246094 L 5.84375 0 Z M 8.824219 0 "/></g></g></g><g fill="#000000" fill-opacity="1"><g transform="translate(91.980655, 21.906888)"><g><path d="M 8.824219 0 L 8.824219 -0.246094 L 8.035156 -0.246094 L 8.035156 -4.265625 C 8.035156 -4.839844 7.9375 -5.40625 7.773438 -5.832031 C 7.292969 -7.019531 6.089844 -7.832031 4.746094 -7.832031 C 3.402344 -7.832031 2.203125 -7.019531 1.71875 -5.832031 C 1.554688 -5.40625 1.460938 -4.839844 1.460938 -4.265625 L 1.460938 -0.246094 L 0.648438 -0.246094 L 0.648438 0 L 3.652344 0 L 3.652344 -0.246094 L 2.863281 -0.246094 L 2.863281 -5.183594 C 2.863281 -6.691406 3.652344 -7.585938 4.746094 -7.585938 C 5.84375 -7.585938 6.632812 -6.691406 6.632812 -5.183594 L 6.632812 -0.246094 L 5.84375 -0.246094 L 5.84375 0 Z M 8.824219 0 "/></g></g></g><g fill="#000000" fill-opacity="1"><g transform="translate(101.450898, 21.906888)"><g><path d="M 7.386719 -3.6875 L 7.386719 -4.230469 C 7.386719 -5.640625 7.007812 -6.359375 6.289062 -7.019531 C 5.722656 -7.539062 4.863281 -7.832031 4.109375 -7.832031 C 2.167969 -7.832031 0.824219 -6.371094 0.824219 -4.371094 L 0.824219 -3.425781 C 0.824219 -2.320312 1.070312 -1.589844 1.683594 -0.917969 C 2.261719 -0.292969 3.132812 0.117188 4.179688 0.117188 C 5.558594 0.117188 6.621094 -0.613281 7.253906 -2.003906 L 7.03125 -2.109375 C 6.359375 -0.742188 5.453125 -0.128906 4.21875 -0.128906 C 3.296875 -0.128906 2.722656 -0.566406 2.449219 -1.25 C 2.25 -1.753906 2.226562 -2.402344 2.226562 -3.273438 L 2.226562 -3.6875 Z M 5.996094 -3.933594 L 2.226562 -3.933594 L 2.226562 -4.851562 C 2.226562 -5.984375 2.414062 -6.5625 2.78125 -6.972656 C 3.121094 -7.363281 3.558594 -7.585938 4.109375 -7.585938 C 4.710938 -7.585938 5.207031 -7.316406 5.511719 -6.890625 C 5.878906 -6.394531 5.996094 -5.867188 5.996094 -4.757812 Z M 5.996094 -3.933594 "/></g></g></g><g fill="#000000" fill-opacity="1"><g transform="translate(109.42522, 21.906888)"><g><path d="M 5.925781 -1.660156 C 5.785156 -0.835938 5.125 -0.128906 4.15625 -0.128906 C 3.355469 -0.128906 2.792969 -0.554688 2.507812 -1.140625 C 2.273438 -1.636719 2.226562 -2.109375 2.226562 -3.25 L 2.226562 -4.945312 C 2.226562 -5.832031 2.367188 -6.441406 2.660156 -6.832031 C 3.039062 -7.339844 3.464844 -7.585938 4.15625 -7.585938 C 4.984375 -7.585938 5.808594 -6.925781 5.808594 -6.03125 L 5.808594 -5.925781 L 6.054688 -5.925781 L 6.054688 -7.808594 L 5.808594 -7.808594 L 5.808594 -6.996094 C 5.441406 -7.503906 4.839844 -7.832031 4.015625 -7.832031 C 3.0625 -7.832031 2.203125 -7.386719 1.648438 -6.75 C 1.105469 -6.136719 0.824219 -5.40625 0.824219 -4.265625 L 0.824219 -3.4375 C 0.824219 -2.34375 1.070312 -1.625 1.636719 -0.976562 C 2.261719 -0.257812 3.226562 0.128906 4.144531 0.128906 C 5.195312 0.128906 6.019531 -0.578125 6.195312 -1.660156 Z M 5.925781 -1.660156 "/></g></g></g><g fill="#000000" fill-opacity="1"><g transform="translate(116.056746, 21.906888)"><g><path d="M 4.121094 -0.988281 C 4.085938 -0.578125 3.816406 -0.316406 3.464844 -0.316406 C 3.144531 -0.316406 2.804688 -0.542969 2.804688 -1.105469 L 2.804688 -7.480469 L 4.132812 -7.480469 L 4.132812 -7.726562 L 2.804688 -7.726562 L 2.804688 -10.835938 L 1.402344 -10.835938 L 1.402344 -7.726562 L 0.589844 -7.726562 L 0.589844 -7.480469 L 1.402344 -7.480469 L 1.402344 -1.933594 C 1.402344 -1.425781 1.449219 -1 1.601562 -0.683594 C 1.871094 -0.128906 2.355469 0.117188 3.097656 0.117188 C 3.839844 0.117188 4.347656 -0.363281 4.382812 -0.988281 Z M 4.121094 -0.988281 "/></g></g></g></svg>